<svg width="15" height="10" viewBox="0 0 15 10" fill="none" xmlns="http://www.w3.org/2000/svg">
<path d="M8.0972 0.275791L14.3252 6.99208C14.3824 7.05378 14.4145 7.13747 14.4145 7.22472C14.4145 7.31198 14.3824 7.39567 14.3252 7.45737L12.5994 9.3182C12.5421 9.37989 12.4645 9.41455 12.3836 9.41455C12.3027 9.41455 12.2251 9.37989 12.1679 9.3182L7.66576 4.4633L3.16361 9.3182C3.1064 9.37989 3.0288 9.41455 2.94789 9.41455C2.86698 9.41455 2.78939 9.37989 2.73218 9.3182L1.00634 7.45737C0.949132 7.39567 0.916992 7.31198 0.916992 7.22472C0.916992 7.13747 0.949132 7.05378 1.00634 6.99208L7.23433 0.275791C7.29098 0.214685 7.35824 0.166212 7.43227 0.133141C7.50629 0.100071 7.58564 0.0830491 7.66576 0.0830491C7.74589 0.0830491 7.82523 0.100071 7.89926 0.133141C7.97329 0.166212 8.04055 0.214685 8.0972 0.275791Z" fill="currentColor"/>
</svg>
