<svg width="14" height="10" viewBox="0 0 14 10" fill="none" xmlns="http://www.w3.org/2000/svg">
<path d="M6.35958 9.38592L0.148431 2.66964C0.0913744 2.60793 0.0593204 2.52425 0.0593204 2.43699C0.0593204 2.34973 0.0913744 2.26605 0.148431 2.20434L1.8696 0.343516C1.92666 0.281822 2.00404 0.247162 2.08473 0.247162C2.16543 0.247162 2.24281 0.281822 2.29987 0.343516L6.78985 5.19841L11.2798 0.343516C11.3369 0.281822 11.4143 0.247162 11.495 0.247162C11.5757 0.247162 11.653 0.281822 11.7101 0.343516L13.4313 2.20434C13.4883 2.26605 13.5204 2.34973 13.5204 2.43699C13.5204 2.52425 13.4883 2.60793 13.4313 2.66964L7.22012 9.38592C7.16362 9.44703 7.09655 9.4955 7.02272 9.52857C6.94889 9.56164 6.86976 9.57866 6.78985 9.57866C6.70994 9.57866 6.63081 9.56164 6.55699 9.52857C6.48316 9.4955 6.41608 9.44703 6.35958 9.38592Z" fill="currentColor"/>
</svg>
