<svg width="10" height="14" viewBox="0 0 10 14" fill="none" xmlns="http://www.w3.org/2000/svg">
<path d="M9.09646 7.35486L2.53966 13.7343C2.47942 13.7929 2.39772 13.8259 2.31254 13.8259C2.22735 13.8259 2.14565 13.7929 2.08541 13.7343L0.26878 11.9665C0.20855 11.9079 0.174713 11.8284 0.174713 11.7456C0.174713 11.6627 0.20855 11.5832 0.26878 11.5246L5.00839 6.91293L0.26878 2.30127C0.20855 2.24266 0.174713 2.16318 0.174713 2.0803C0.174713 1.99742 0.20855 1.91794 0.26878 1.85934L2.08541 0.0915247C2.14565 0.0329221 2.22735 0 2.31254 0C2.39772 0 2.47942 0.0329221 2.53966 0.0915247L9.09646 6.471C9.15611 6.52903 9.20343 6.59793 9.23572 6.67375C9.26801 6.74958 9.28462 6.83085 9.28462 6.91293C9.28462 6.99501 9.26801 7.07628 9.23572 7.15211C9.20343 7.22794 9.15611 7.29683 9.09646 7.35486Z" fill="currentColor"/>
</svg>
