<svg width="26" height="20" viewBox="0 0 26 20" fill="none" xmlns="http://www.w3.org/2000/svg">
<path d="M12.5658 4.03735L3.60276 11.4265C3.60276 11.4369 3.60014 11.4522 3.5949 11.4731C3.58977 11.4939 3.58704 11.5089 3.58704 11.5197V19.0019C3.58704 19.272 3.68581 19.5062 3.88329 19.7033C4.08072 19.9006 4.31451 19.9998 4.58472 19.9998H10.5704V14.0139H14.5613V20.0001H20.5469C20.8171 20.0001 21.0512 19.901 21.2484 19.7033C21.4458 19.5064 21.5449 19.2721 21.5449 19.0019V11.5197C21.5449 11.4782 21.5393 11.4468 21.5292 11.4265L12.5658 4.03735Z" fill="currentColor"/>
<path d="M24.9582 9.74279L21.5446 6.90574V0.545713C21.5446 0.400317 21.4979 0.280746 21.4041 0.187164C21.3111 0.0936912 21.1915 0.0469548 21.0458 0.0469548H18.0529C17.9073 0.0469548 17.7878 0.0936912 17.6942 0.187164C17.6008 0.280746 17.5541 0.400371 17.5541 0.545713V3.58538L13.7506 0.405285C13.4184 0.135077 13.0235 0 12.5662 0C12.1089 0 11.714 0.135077 11.3815 0.405285L0.173217 9.74279C0.069316 9.82578 0.0123697 9.93749 0.00177759 10.0778C-0.00875993 10.218 0.0275481 10.3405 0.110811 10.4443L1.07726 11.5979C1.16052 11.6914 1.2695 11.7485 1.40463 11.7694C1.52939 11.7799 1.65415 11.7434 1.77891 11.6603L12.5658 2.66567L23.3529 11.6603C23.4362 11.7328 23.5451 11.769 23.6802 11.769H23.7271C23.862 11.7485 23.9708 11.6909 24.0545 11.5977L25.021 10.4443C25.1041 10.3402 25.1405 10.218 25.1297 10.0776C25.1191 9.93765 25.0619 9.82594 24.9582 9.74279Z" fill="currentColor"/>
</svg>
