<svg width="81" height="58" viewBox="0 0 81 58" fill="none" xmlns="http://www.w3.org/2000/svg">
<path d="M22.0752 28.837C22.0735 27.8327 22.2699 26.8379 22.653 25.9095C23.0362 24.9812 23.5986 24.1375 24.3082 23.4267C25.0177 22.716 25.8605 22.1521 26.7882 21.7674C27.7159 21.3826 28.7103 21.1846 29.7147 21.1846H29.6714C30.6757 21.1846 31.6702 21.3826 32.5979 21.7674C33.5256 22.1521 34.3684 22.716 35.0779 23.4267C35.7875 24.1375 36.3499 24.9812 36.7331 25.9095C37.1162 26.8379 37.3126 27.8327 37.3109 28.837C37.3109 30.8631 36.506 32.8062 35.0733 34.2389C33.6406 35.6716 31.6975 36.4764 29.6714 36.4764H29.7147C27.6886 36.4764 25.7454 35.6716 24.3128 34.2389C22.8801 32.8062 22.0752 30.8631 22.0752 28.837ZM57.8167 15.2918H72.0406C74.0667 15.2918 76.0099 14.487 77.4425 13.0543C78.8752 11.6216 79.6801 9.6785 79.6801 7.6524C79.6818 6.64808 79.4854 5.65329 79.1023 4.72493C78.7191 3.79658 78.1567 2.95288 77.4471 2.24212C76.7376 1.53136 75.8948 0.967483 74.9671 0.582755C74.0394 0.198027 73.045 -1.44746e-06 72.0406 0L57.8167 0C56.8124 -1.44746e-06 55.8179 0.198027 54.8902 0.582755C53.9625 0.967483 53.1198 1.53136 52.4102 2.24212C51.7007 2.95288 51.1382 3.79658 50.7551 4.72493C50.3719 5.65329 50.1756 6.64808 50.1773 7.6524C50.1773 9.6785 50.9821 11.6216 52.4148 13.0543C53.8475 14.487 55.7906 15.2918 57.8167 15.2918ZM8.96239 57.661H36.5888C38.6149 57.661 40.5581 56.8562 41.9907 55.4235C43.4234 53.9908 44.2283 52.0477 44.2283 50.0216C44.23 49.0173 44.0336 48.0225 43.6505 47.0942C43.2673 46.1658 42.7049 45.3221 41.9953 44.6113C41.2858 43.9006 40.443 43.3367 39.5153 42.952C38.5876 42.5672 37.5932 42.3692 36.5888 42.3692H8.96239C7.95807 42.3692 6.96361 42.5672 6.0359 42.952C5.1082 43.3367 4.26546 43.9006 3.5559 44.6113C2.84635 45.3221 2.2839 46.1658 1.90075 47.0942C1.51759 48.0225 1.32125 49.0173 1.32296 50.0216C1.32296 52.0477 2.12782 53.9908 3.56049 55.4235C4.99317 56.8562 6.93628 57.661 8.96239 57.661ZM45.2443 36.4764H47.9464L54.2585 21.1846H50.6485L46.8007 31.2149H46.7575L42.9745 21.1846H39.1267L45.2443 36.4764ZM59.2737 36.4764H62.6459V21.1846H59.2737V36.4764ZM68.8716 36.4764H79.6585V33.3766H72.2438V30.2637H78.8802V27.1509H72.2438V24.2974H79.2694V21.1846H68.8932L68.8716 36.4764ZM4.36662 15.3048H7.73887V2.98314H12.1055V0H0V2.98314H4.36662V15.3048ZM16.8612 15.3048H20.2335V8.69001H26.7618V15.3048H30.134V0H26.7618V5.70687H20.2118V0H16.8612V15.3048ZM34.6952 15.3048H45.5037V12.192H38.0458V9.07912H44.6822V5.96628H38.0458V3.11284H45.0713V0H34.6952V15.3048ZM0.540424 36.4894H3.89105V24.7514H3.93428L7.82534 36.4894H10.3761L14.3969 24.7514H14.4401V36.4894H17.8124V21.1846H12.7324L9.1872 31.1716H9.14397L5.62041 21.1846H0.518807L0.540424 36.4894ZM49.0013 57.674H54.4747C55.5835 57.6797 56.6863 57.512 57.7432 57.1768C58.7406 56.8653 59.6715 56.3713 60.4885 55.7198C61.283 55.0733 61.9276 54.262 62.3779 53.342C62.8768 52.3222 63.1314 51.2001 63.1215 50.0649C63.1567 48.8359 62.9082 47.6154 62.3952 46.4981C61.9443 45.5563 61.2742 44.7364 60.441 44.1072C59.5683 43.4816 58.5789 43.0376 57.5314 42.8016C56.3902 42.5165 55.2186 42.3713 54.0424 42.3692H48.9797L49.0013 57.674ZM52.3779 45.4821H54.3666C55.0487 45.4796 55.7279 45.5698 56.3857 45.7501C56.9904 45.9146 57.5592 46.1902 58.0631 46.5629C58.5419 46.9274 58.9297 47.398 59.1959 47.9377C59.4928 48.5456 59.641 49.2155 59.6282 49.8919C59.6467 50.6468 59.4991 51.3966 59.1959 52.0882C58.9374 52.6582 58.5406 53.1545 58.0415 53.5322C57.525 53.911 56.9365 54.1803 56.3122 54.3234C55.6033 54.4867 54.8778 54.5665 54.1505 54.5612H52.3563L52.3779 45.4821ZM68.0026 57.674H74.2715C74.9588 57.6725 75.6441 57.6 76.3165 57.4578C76.9683 57.3279 77.5928 57.0866 78.1626 56.7445C78.7036 56.4216 79.1624 55.9777 79.5028 55.4475C79.8674 54.8372 80.0475 54.1345 80.0216 53.4241C80.0254 52.9525 79.9448 52.484 79.7838 52.0406C79.6345 51.622 79.4039 51.237 79.1051 50.9079C78.8043 50.5784 78.4452 50.3072 78.0458 50.1081C77.615 49.8881 77.1502 49.7419 76.671 49.6757V49.6325C77.4135 49.419 78.0785 48.9956 78.5863 48.4133C79.0834 47.8054 79.3403 47.0363 79.3083 46.2516C79.3427 45.5473 79.1698 44.8483 78.8111 44.2412C78.4891 43.7414 78.042 43.3345 77.5141 43.061C76.9494 42.7725 76.3397 42.5824 75.7112 42.4989C75.0478 42.4078 74.3791 42.3616 73.7095 42.3606H68.0026V57.674ZM71.3748 45.2227H73.6662C73.9345 45.2241 74.2021 45.2487 74.4661 45.2962C74.7226 45.3409 74.9706 45.4255 75.201 45.5469C75.4169 45.6619 75.5999 45.8301 75.7328 46.0355C75.8773 46.2717 75.9481 46.5457 75.936 46.8223C75.9437 47.093 75.8811 47.3611 75.7544 47.6005C75.6375 47.8116 75.4695 47.9899 75.2659 48.1193C75.0582 48.2528 74.8283 48.348 74.5871 48.4003C74.3345 48.4573 74.0765 48.4863 73.8176 48.4868H71.3359L71.3748 45.2227ZM71.3748 51.3403H73.9256C74.2222 51.3417 74.5183 51.3634 74.8119 51.4051C75.1094 51.4457 75.4002 51.5256 75.6766 51.6429C75.9428 51.752 76.1776 51.9259 76.3597 52.1487C76.5457 52.3976 76.6403 52.703 76.6278 53.0134C76.6387 53.3078 76.5684 53.5994 76.4246 53.8565C76.292 54.0816 76.1102 54.2737 75.8928 54.4185C75.6736 54.5645 75.4285 54.6672 75.1708 54.7211C74.9107 54.7772 74.6456 54.8062 74.3796 54.8076H71.3532L71.3748 51.3403Z" fill="url(#paint0_linear_192_3496)"/>
<defs>
<linearGradient id="paint0_linear_192_3496" x1="0" y1="28.837" x2="80" y2="28.837" gradientUnits="userSpaceOnUse">
<stop stop-color="#90CEA1"/>
<stop offset="0.56" stop-color="#3CBEC9"/>
<stop offset="1" stop-color="#00B3E5"/>
</linearGradient>
</defs>
</svg>
