<svg width="16" height="20" viewBox="0 0 16 20" fill="none" xmlns="http://www.w3.org/2000/svg">
<path d="M13.3791 0H1.7749C0.82982 0 0 0.777473 0 1.69774V18.8638C0 19.1719 0.0857362 19.4286 0.223914 19.627C0.389161 19.8641 0.655235 20 0.940551 19.9999C1.2103 19.9999 1.49751 19.8798 1.76273 19.6533L6.95443 15.2453C7.11478 15.1083 7.3451 15.0299 7.58458 15.0299C7.82396 15.0299 8.05382 15.1083 8.21463 15.2457L13.389 19.6526C13.6551 19.8798 13.9225 20 14.1918 20C14.6472 20 15.0911 19.6488 15.0911 18.8639V1.69774C15.0911 0.777473 14.3242 0 13.3791 0Z" fill="currentColor"/>
<path d="M13.3791 0H1.7749C0.82982 0 0 0.777473 0 1.69774V18.8638C0 19.1719 0.0857362 19.4286 0.223914 19.627C0.389161 19.8641 0.655235 20 0.940551 19.9999C1.2103 19.9999 1.49751 19.8798 1.76273 19.6533L6.95443 15.2453C7.11478 15.1083 7.3451 15.0299 7.58458 15.0299C7.82396 15.0299 8.05382 15.1083 8.21463 15.2457L13.389 19.6526C13.6551 19.8798 13.9225 20 14.1918 20C14.6472 20 15.0911 19.6488 15.0911 18.8639V1.69774C15.0911 0.777473 14.3242 0 13.3791 0Z" stroke="currentColor"/>
</svg>
